<?xml version="1.0" encoding="utf-8"?>
<svg xmlns="http://www.w3.org/2000/svg" xmlns:xlink="http://www.w3.org/1999/xlink" width="600" height="400" viewBox="0 0 2400 1600">
<defs>
  <clipPath id="clip1500">
    <rect x="0" y="0" width="2400" height="1600"/>
  </clipPath>
</defs>
<path clip-path="url(#clip1500)" d="
M0 1600 L2400 1600 L2400 0 L0 0  Z
  " fill="#ffffff" fill-rule="evenodd" fill-opacity="1"/>
<defs>
  <clipPath id="clip1501">
    <rect x="480" y="0" width="1681" height="1600"/>
  </clipPath>
</defs>
<path clip-path="url(#clip1500)" d="
M102.56 689.565 L2352.76 689.565 L2352.76 47.2441 L102.56 47.2441  Z
  " fill="#ffffff" fill-rule="evenodd" fill-opacity="1"/>
<defs>
  <clipPath id="clip1502">
    <rect x="102" y="47" width="2251" height="643"/>
  </clipPath>
</defs>
<polyline clip-path="url(#clip1502)" style="stroke:#000000; stroke-width:2; stroke-opacity:0.1; fill:none" points="
  153.83,689.565 153.83,47.2441 
  "/>
<polyline clip-path="url(#clip1502)" style="stroke:#000000; stroke-width:2; stroke-opacity:0.1; fill:none" points="
  774.54,689.565 774.54,47.2441 
  "/>
<polyline clip-path="url(#clip1502)" style="stroke:#000000; stroke-width:2; stroke-opacity:0.1; fill:none" points="
  1395.25,689.565 1395.25,47.2441 
  "/>
<polyline clip-path="url(#clip1502)" style="stroke:#000000; stroke-width:2; stroke-opacity:0.1; fill:none" points="
  2015.96,689.565 2015.96,47.2441 
  "/>
<polyline clip-path="url(#clip1502)" style="stroke:#000000; stroke-width:2; stroke-opacity:0.1; fill:none" points="
  102.56,619.618 2352.76,619.618 
  "/>
<polyline clip-path="url(#clip1502)" style="stroke:#000000; stroke-width:2; stroke-opacity:0.1; fill:none" points="
  102.56,496.384 2352.76,496.384 
  "/>
<polyline clip-path="url(#clip1502)" style="stroke:#000000; stroke-width:2; stroke-opacity:0.1; fill:none" points="
  102.56,373.149 2352.76,373.149 
  "/>
<polyline clip-path="url(#clip1502)" style="stroke:#000000; stroke-width:2; stroke-opacity:0.1; fill:none" points="
  102.56,249.914 2352.76,249.914 
  "/>
<polyline clip-path="url(#clip1502)" style="stroke:#000000; stroke-width:2; stroke-opacity:0.1; fill:none" points="
  102.56,126.68 2352.76,126.68 
  "/>
<polyline clip-path="url(#clip1500)" style="stroke:#000000; stroke-width:4; stroke-opacity:1; fill:none" points="
  102.56,689.565 2352.76,689.565 
  "/>
<polyline clip-path="url(#clip1500)" style="stroke:#000000; stroke-width:4; stroke-opacity:1; fill:none" points="
  102.56,689.565 102.56,47.2441 
  "/>
<polyline clip-path="url(#clip1500)" style="stroke:#000000; stroke-width:4; stroke-opacity:1; fill:none" points="
  153.83,689.565 153.83,681.857 
  "/>
<polyline clip-path="url(#clip1500)" style="stroke:#000000; stroke-width:4; stroke-opacity:1; fill:none" points="
  774.54,689.565 774.54,681.857 
  "/>
<polyline clip-path="url(#clip1500)" style="stroke:#000000; stroke-width:4; stroke-opacity:1; fill:none" points="
  1395.25,689.565 1395.25,681.857 
  "/>
<polyline clip-path="url(#clip1500)" style="stroke:#000000; stroke-width:4; stroke-opacity:1; fill:none" points="
  2015.96,689.565 2015.96,681.857 
  "/>
<polyline clip-path="url(#clip1500)" style="stroke:#000000; stroke-width:4; stroke-opacity:1; fill:none" points="
  102.56,619.618 129.562,619.618 
  "/>
<polyline clip-path="url(#clip1500)" style="stroke:#000000; stroke-width:4; stroke-opacity:1; fill:none" points="
  102.56,496.384 129.562,496.384 
  "/>
<polyline clip-path="url(#clip1500)" style="stroke:#000000; stroke-width:4; stroke-opacity:1; fill:none" points="
  102.56,373.149 129.562,373.149 
  "/>
<polyline clip-path="url(#clip1500)" style="stroke:#000000; stroke-width:4; stroke-opacity:1; fill:none" points="
  102.56,249.914 129.562,249.914 
  "/>
<polyline clip-path="url(#clip1500)" style="stroke:#000000; stroke-width:4; stroke-opacity:1; fill:none" points="
  102.56,126.68 129.562,126.68 
  "/>
<g clip-path="url(#clip1500)">
<text style="fill:#000000; fill-opacity:1; font-family:Arial,Helvetica Neue,Helvetica,sans-serif; font-size:48px; text-anchor:middle;" transform="rotate(0, 153.83, 743.565)" x="153.83" y="743.565">0</text>
</g>
<g clip-path="url(#clip1500)">
<text style="fill:#000000; fill-opacity:1; font-family:Arial,Helvetica Neue,Helvetica,sans-serif; font-size:48px; text-anchor:middle;" transform="rotate(0, 774.54, 743.565)" x="774.54" y="743.565">50</text>
</g>
<g clip-path="url(#clip1500)">
<text style="fill:#000000; fill-opacity:1; font-family:Arial,Helvetica Neue,Helvetica,sans-serif; font-size:48px; text-anchor:middle;" transform="rotate(0, 1395.25, 743.565)" x="1395.25" y="743.565">100</text>
</g>
<g clip-path="url(#clip1500)">
<text style="fill:#000000; fill-opacity:1; font-family:Arial,Helvetica Neue,Helvetica,sans-serif; font-size:48px; text-anchor:middle;" transform="rotate(0, 2015.96, 743.565)" x="2015.96" y="743.565">150</text>
</g>
<g clip-path="url(#clip1500)">
<text style="fill:#000000; fill-opacity:1; font-family:Arial,Helvetica Neue,Helvetica,sans-serif; font-size:48px; text-anchor:end;" transform="rotate(0, 78.5598, 637.118)" x="78.5598" y="637.118">-2</text>
</g>
<g clip-path="url(#clip1500)">
<text style="fill:#000000; fill-opacity:1; font-family:Arial,Helvetica Neue,Helvetica,sans-serif; font-size:48px; text-anchor:end;" transform="rotate(0, 78.5598, 513.884)" x="78.5598" y="513.884">-1</text>
</g>
<g clip-path="url(#clip1500)">
<text style="fill:#000000; fill-opacity:1; font-family:Arial,Helvetica Neue,Helvetica,sans-serif; font-size:48px; text-anchor:end;" transform="rotate(0, 78.5598, 390.649)" x="78.5598" y="390.649">0</text>
</g>
<g clip-path="url(#clip1500)">
<text style="fill:#000000; fill-opacity:1; font-family:Arial,Helvetica Neue,Helvetica,sans-serif; font-size:48px; text-anchor:end;" transform="rotate(0, 78.5598, 267.414)" x="78.5598" y="267.414">1</text>
</g>
<g clip-path="url(#clip1500)">
<text style="fill:#000000; fill-opacity:1; font-family:Arial,Helvetica Neue,Helvetica,sans-serif; font-size:48px; text-anchor:end;" transform="rotate(0, 78.5598, 144.18)" x="78.5598" y="144.18">2</text>
</g>
<polyline clip-path="url(#clip1502)" style="stroke:#009af9; stroke-width:4; stroke-opacity:1; fill:none" points="
  166.245,424.679 178.659,270.994 191.073,111.579 203.487,404.645 215.901,290.052 228.316,234.206 240.73,334.361 253.144,322.075 265.558,434.793 277.972,401.588 
  290.386,436.005 302.801,267.22 315.215,480.554 327.629,472.747 340.043,671.386 352.457,389.715 364.872,333.375 377.286,285.317 389.7,65.423 402.114,225.544 
  414.528,562.163 426.943,631.771 439.357,384.799 451.771,505.022 464.185,363.218 476.599,631.964 489.014,420.537 501.428,372.929 513.842,349.847 526.256,147.033 
  538.67,246.454 551.084,385.021 563.499,249.188 575.913,448.222 588.327,234.686 600.741,237.395 613.155,264.276 625.57,392.864 637.984,252.93 650.398,218.434 
  662.812,308.526 675.226,432.245 687.641,191.857 700.055,453.019 712.469,577.808 724.883,409.106 737.297,354.68 749.712,330.507 762.126,417.096 774.54,370.441 
  786.954,373.149 799.368,300.713 811.782,255.946 824.197,255.946 836.611,300.713 849.025,373.149 861.439,445.585 873.853,490.352 886.268,490.352 898.682,445.585 
  911.096,373.149 923.51,79.1081 935.924,267.089 948.339,344.638 960.753,517.847 973.167,286.992 985.581,192.549 997.995,421.142 1010.41,551.221 1022.82,267.665 
  1035.24,396.738 1047.65,388.823 1060.07,357.308 1072.48,344.027 1084.89,487.037 1097.31,333.716 1109.72,519.289 1122.14,486.347 1134.55,234.933 1146.97,410.426 
  1159.38,540.282 1171.79,524.93 1184.21,262.693 1196.62,281.584 1209.04,359.493 1221.45,633.118 1233.86,348.349 1246.28,508.656 1258.69,358.28 1271.11,500.545 
  1283.52,360.749 1295.94,485.066 1308.35,188.916 1320.76,448.975 1333.18,217.908 1345.59,584.032 1358.01,348.64 1370.42,285.331 1382.84,362.205 1395.25,274.988 
  1407.66,466.369 1420.08,580.261 1432.49,384.684 1444.91,451.657 1457.32,382.747 1469.73,301.702 1482.15,335.69 1494.56,257.795 1506.98,491.932 1519.39,347.474 
  1531.81,316.436 1544.22,373.149 1556.63,300.713 1569.05,255.946 1581.46,255.946 1593.88,300.713 1606.29,373.149 1618.7,445.585 1631.12,490.352 1643.53,490.352 
  1655.95,445.585 1668.36,373.149 1680.78,343.499 1693.19,494.721 1705.6,298.705 1718.02,306.353 1730.43,382.802 1742.85,558.43 1755.26,296.264 1767.68,279.692 
  1780.09,344.78 1792.5,402.833 1804.92,331.747 1817.33,516.579 1829.75,561.161 1842.16,407.615 1854.57,453.331 1866.99,295.231 1879.4,407.274 1891.82,453.841 
  1904.23,425.618 1916.65,208.789 1929.06,382.425 1941.47,305.898 1953.89,364.835 1966.3,376.947 1978.72,447.44 1991.13,231.755 2003.54,498.946 2015.96,415.267 
  2028.37,351.197 2040.79,133.126 2053.2,79.2745 2065.62,259.427 2078.03,452.684 2090.44,297.872 2102.86,251.808 2115.27,299.696 2127.69,422.268 2140.1,269.466 
  2152.52,508.677 2164.93,415.116 2177.34,140.819 2189.76,421.903 2202.17,528.092 2214.59,393.061 2227,185.987 2239.41,376.059 2251.83,193.826 2264.24,413.636 
  2276.66,577.677 2289.07,363.998 
  "/>
<polyline clip-path="url(#clip1502)" style="stroke:#e26f46; stroke-width:8; stroke-opacity:1; fill:none" points="
  786.954,373.149 799.368,300.713 811.782,255.946 824.197,255.946 836.611,300.713 849.025,373.149 861.439,445.585 873.853,490.352 886.268,490.352 898.682,445.585 
  911.096,373.149 
  "/>
<polyline clip-path="url(#clip1502)" style="stroke:#e26f46; stroke-width:8; stroke-opacity:1; fill:none" points="
  1544.22,373.149 1556.63,300.713 1569.05,255.946 1581.46,255.946 1593.88,300.713 1606.29,373.149 1618.7,445.585 1631.12,490.352 1643.53,490.352 1655.95,445.585 
  1668.36,373.149 
  "/>
<polyline clip-path="url(#clip1502)" style="stroke:#3da44d; stroke-width:8; stroke-opacity:1; fill:none" points="
  1060.07,357.308 1072.48,344.027 1084.89,487.037 1097.31,333.716 1109.72,519.289 1122.14,486.347 1134.55,234.933 1146.97,410.426 1159.38,540.282 1171.79,524.93 
  1184.21,262.693 
  "/>
<polyline clip-path="url(#clip1502)" style="stroke:#3da44d; stroke-width:8; stroke-opacity:1; fill:none" points="
  2102.86,251.808 2115.27,299.696 2127.69,422.268 2140.1,269.466 2152.52,508.677 2164.93,415.116 2177.34,140.819 2189.76,421.903 2202.17,528.092 2214.59,393.061 
  2227,185.987 
  "/>
<path clip-path="url(#clip1500)" d="
M1989.93 372.684 L2280.76 372.684 L2280.76 130.764 L1989.93 130.764  Z
  " fill="#ffffff" fill-rule="evenodd" fill-opacity="1"/>
<polyline clip-path="url(#clip1500)" style="stroke:#000000; stroke-width:4; stroke-opacity:1; fill:none" points="
  1989.93,372.684 2280.76,372.684 2280.76,130.764 1989.93,130.764 1989.93,372.684 
  "/>
<polyline clip-path="url(#clip1500)" style="stroke:#009af9; stroke-width:4; stroke-opacity:1; fill:none" points="
  2013.93,191.244 2157.93,191.244 
  "/>
<g clip-path="url(#clip1500)">
<text style="fill:#000000; fill-opacity:1; font-family:Arial,Helvetica Neue,Helvetica,sans-serif; font-size:48px; text-anchor:start;" transform="rotate(0, 2181.93, 208.744)" x="2181.93" y="208.744">y1</text>
</g>
<polyline clip-path="url(#clip1500)" style="stroke:#e26f46; stroke-width:8; stroke-opacity:1; fill:none" points="
  2013.93,251.724 2157.93,251.724 
  "/>
<g clip-path="url(#clip1500)">
<text style="fill:#000000; fill-opacity:1; font-family:Arial,Helvetica Neue,Helvetica,sans-serif; font-size:48px; text-anchor:start;" transform="rotate(0, 2181.93, 269.224)" x="2181.93" y="269.224">1</text>
</g>
<polyline clip-path="url(#clip1500)" style="stroke:#3da44d; stroke-width:8; stroke-opacity:1; fill:none" points="
  2013.93,312.204 2157.93,312.204 
  "/>
<g clip-path="url(#clip1500)">
<text style="fill:#000000; fill-opacity:1; font-family:Arial,Helvetica Neue,Helvetica,sans-serif; font-size:48px; text-anchor:start;" transform="rotate(0, 2181.93, 329.704)" x="2181.93" y="329.704">2</text>
</g>
<path clip-path="url(#clip1500)" d="
M102.56 1512.16 L2352.76 1512.16 L2352.76 869.838 L102.56 869.838  Z
  " fill="#ffffff" fill-rule="evenodd" fill-opacity="1"/>
<defs>
  <clipPath id="clip1503">
    <rect x="102" y="869" width="2251" height="643"/>
  </clipPath>
</defs>
<polyline clip-path="url(#clip1503)" style="stroke:#000000; stroke-width:2; stroke-opacity:0.1; fill:none" points="
  153.83,1512.16 153.83,869.838 
  "/>
<polyline clip-path="url(#clip1503)" style="stroke:#000000; stroke-width:2; stroke-opacity:0.1; fill:none" points="
  774.54,1512.16 774.54,869.838 
  "/>
<polyline clip-path="url(#clip1503)" style="stroke:#000000; stroke-width:2; stroke-opacity:0.1; fill:none" points="
  1395.25,1512.16 1395.25,869.838 
  "/>
<polyline clip-path="url(#clip1503)" style="stroke:#000000; stroke-width:2; stroke-opacity:0.1; fill:none" points="
  2015.96,1512.16 2015.96,869.838 
  "/>
<polyline clip-path="url(#clip1503)" style="stroke:#000000; stroke-width:2; stroke-opacity:0.1; fill:none" points="
  102.56,1493.98 2352.76,1493.98 
  "/>
<polyline clip-path="url(#clip1503)" style="stroke:#000000; stroke-width:2; stroke-opacity:0.1; fill:none" points="
  102.56,1291.64 2352.76,1291.64 
  "/>
<polyline clip-path="url(#clip1503)" style="stroke:#000000; stroke-width:2; stroke-opacity:0.1; fill:none" points="
  102.56,1089.29 2352.76,1089.29 
  "/>
<polyline clip-path="url(#clip1503)" style="stroke:#000000; stroke-width:2; stroke-opacity:0.1; fill:none" points="
  102.56,886.949 2352.76,886.949 
  "/>
<polyline clip-path="url(#clip1500)" style="stroke:#000000; stroke-width:4; stroke-opacity:1; fill:none" points="
  102.56,1512.16 2352.76,1512.16 
  "/>
<polyline clip-path="url(#clip1500)" style="stroke:#000000; stroke-width:4; stroke-opacity:1; fill:none" points="
  102.56,1512.16 102.56,869.838 
  "/>
<polyline clip-path="url(#clip1500)" style="stroke:#000000; stroke-width:4; stroke-opacity:1; fill:none" points="
  153.83,1512.16 153.83,1504.45 
  "/>
<polyline clip-path="url(#clip1500)" style="stroke:#000000; stroke-width:4; stroke-opacity:1; fill:none" points="
  774.54,1512.16 774.54,1504.45 
  "/>
<polyline clip-path="url(#clip1500)" style="stroke:#000000; stroke-width:4; stroke-opacity:1; fill:none" points="
  1395.25,1512.16 1395.25,1504.45 
  "/>
<polyline clip-path="url(#clip1500)" style="stroke:#000000; stroke-width:4; stroke-opacity:1; fill:none" points="
  2015.96,1512.16 2015.96,1504.45 
  "/>
<polyline clip-path="url(#clip1500)" style="stroke:#000000; stroke-width:4; stroke-opacity:1; fill:none" points="
  102.56,1493.98 129.562,1493.98 
  "/>
<polyline clip-path="url(#clip1500)" style="stroke:#000000; stroke-width:4; stroke-opacity:1; fill:none" points="
  102.56,1291.64 129.562,1291.64 
  "/>
<polyline clip-path="url(#clip1500)" style="stroke:#000000; stroke-width:4; stroke-opacity:1; fill:none" points="
  102.56,1089.29 129.562,1089.29 
  "/>
<polyline clip-path="url(#clip1500)" style="stroke:#000000; stroke-width:4; stroke-opacity:1; fill:none" points="
  102.56,886.949 129.562,886.949 
  "/>
<g clip-path="url(#clip1500)">
<text style="fill:#000000; fill-opacity:1; font-family:Arial,Helvetica Neue,Helvetica,sans-serif; font-size:48px; text-anchor:middle;" transform="rotate(0, 153.83, 1566.16)" x="153.83" y="1566.16">0</text>
</g>
<g clip-path="url(#clip1500)">
<text style="fill:#000000; fill-opacity:1; font-family:Arial,Helvetica Neue,Helvetica,sans-serif; font-size:48px; text-anchor:middle;" transform="rotate(0, 774.54, 1566.16)" x="774.54" y="1566.16">50</text>
</g>
<g clip-path="url(#clip1500)">
<text style="fill:#000000; fill-opacity:1; font-family:Arial,Helvetica Neue,Helvetica,sans-serif; font-size:48px; text-anchor:middle;" transform="rotate(0, 1395.25, 1566.16)" x="1395.25" y="1566.16">100</text>
</g>
<g clip-path="url(#clip1500)">
<text style="fill:#000000; fill-opacity:1; font-family:Arial,Helvetica Neue,Helvetica,sans-serif; font-size:48px; text-anchor:middle;" transform="rotate(0, 2015.96, 1566.16)" x="2015.96" y="1566.16">150</text>
</g>
<g clip-path="url(#clip1500)">
<text style="fill:#000000; fill-opacity:1; font-family:Arial,Helvetica Neue,Helvetica,sans-serif; font-size:48px; text-anchor:end;" transform="rotate(0, 78.5598, 1511.48)" x="78.5598" y="1511.48">0</text>
</g>
<g clip-path="url(#clip1500)">
<text style="fill:#000000; fill-opacity:1; font-family:Arial,Helvetica Neue,Helvetica,sans-serif; font-size:48px; text-anchor:end;" transform="rotate(0, 78.5598, 1309.14)" x="78.5598" y="1309.14">1</text>
</g>
<g clip-path="url(#clip1500)">
<text style="fill:#000000; fill-opacity:1; font-family:Arial,Helvetica Neue,Helvetica,sans-serif; font-size:48px; text-anchor:end;" transform="rotate(0, 78.5598, 1106.79)" x="78.5598" y="1106.79">2</text>
</g>
<g clip-path="url(#clip1500)">
<text style="fill:#000000; fill-opacity:1; font-family:Arial,Helvetica Neue,Helvetica,sans-serif; font-size:48px; text-anchor:end;" transform="rotate(0, 78.5598, 904.449)" x="78.5598" y="904.449">3</text>
</g>
<g clip-path="url(#clip1500)">
<text style="fill:#000000; fill-opacity:1; font-family:Arial,Helvetica Neue,Helvetica,sans-serif; font-size:84px; text-anchor:middle;" transform="rotate(0, 1227.66, 850.606)" x="1227.66" y="850.606">Matrix profile</text>
</g>
<polyline clip-path="url(#clip1503)" style="stroke:#009af9; stroke-width:4; stroke-opacity:1; fill:none" points="
  166.245,941.073 178.659,953.447 191.073,950.838 203.487,1050.99 215.901,949.708 228.316,976.956 240.73,935.407 253.144,957.723 265.558,1020.51 277.972,1122.77 
  290.386,1066.09 302.801,1058.5 315.215,1038.38 327.629,1002.08 340.043,988.508 352.457,920.494 364.872,970.352 377.286,969.362 389.7,994.9 402.114,1130.18 
  414.528,1129.08 426.943,1099.55 439.357,1061.48 451.771,1015.94 464.185,959.078 476.599,909.985 489.014,935.13 501.428,986.873 513.842,949.991 526.256,1015.81 
  538.67,1017.89 551.084,1071.17 563.499,1086.04 575.913,1130.94 588.327,1157.26 600.741,1132.59 613.155,1109.2 625.57,1084.75 637.984,1155.09 650.398,1119.39 
  662.812,1068.72 675.226,1019.02 687.641,1130.18 700.055,1129.08 712.469,1099.55 724.883,970.134 737.297,1042.98 749.712,1050.1 762.126,1294.94 774.54,1370.41 
  786.954,1493.98 799.368,1038.92 811.782,1003.71 824.197,974.096 836.611,1058.5 849.025,1038.38 861.439,1012.76 873.853,993.512 886.268,1114.96 898.682,1112.68 
  911.096,1103.07 923.51,1073.35 935.924,1060.19 948.339,1103.28 960.753,1120.01 973.167,1014.87 985.581,975.718 997.995,1097.92 1010.41,1023.91 1022.82,1184.17 
  1035.24,1229.01 1047.65,1244.29 1060.07,1269.74 1072.48,1153.82 1084.89,1116.91 1097.31,1049.63 1109.72,1112.68 1122.14,1103.07 1134.55,1073.35 1146.97,1006.26 
  1159.38,1125.97 1171.79,1099.57 1184.21,1014.87 1196.62,1012.59 1209.04,1023.53 1221.45,1031.11 1233.86,1014.82 1246.28,974.196 1258.69,1007.47 1271.11,1051.6 
  1283.52,888.017 1295.94,956.608 1308.35,904.339 1320.76,953.447 1333.18,914.203 1345.59,966.045 1358.01,1007.28 1370.42,997.873 1382.84,943.056 1395.25,947.274 
  1407.66,1012.76 1420.08,985.948 1432.49,1051.6 1444.91,1032.96 1457.32,978.799 1469.73,964.399 1482.15,981.257 1494.56,993.637 1506.98,1064.64 1519.39,1294.94 
  1531.81,1370.41 1544.22,1493.98 1556.63,1074.66 1569.05,1024.48 1581.46,947.773 1593.88,982.515 1606.29,940.538 1618.7,986.723 1631.12,1030.53 1643.53,994.637 
  1655.95,1017.89 1668.36,1071.17 1680.78,1103.28 1693.19,1130.94 1705.6,1157.26 1718.02,1132.59 1730.43,1109.2 1742.85,1084.75 1755.26,1155.09 1767.68,1119.39 
  1780.09,1068.72 1792.5,1019.02 1804.92,1012.59 1817.33,1045.55 1829.75,1031.11 1842.16,1049.39 1854.57,1008.57 1866.99,917.712 1879.4,906.988 1891.82,1097.92 
  1904.23,1023.91 1916.65,996.513 1929.06,1020.51 1941.47,1018.67 1953.89,1047.45 1966.3,1061.48 1978.72,1015.94 1991.13,1002.08 2003.54,1114.96 2015.96,1125.97 
  2028.37,1070 2040.79,1075.02 2053.2,978.197 2065.62,1184.17 2078.03,1229.01 2090.44,1244.29 2102.86,1269.74 2115.27,1153.82 2127.69,1116.91 2140.1,1049.63 
  2152.52,1049.39 2164.93,1008.57 
  "/>
</svg>
